<?xml version="1.0" standalone="no"?>
<!DOCTYPE svg PUBLIC "-//W3C//DTD SVG 20010904//EN"
 "http://www.w3.org/TR/2001/REC-SVG-20010904/DTD/svg10.dtd">
<svg version="1.0" xmlns="http://www.w3.org/2000/svg"
 width="512.000000pt" height="512.000000pt" viewBox="0 0 512.000000 512.000000"
 preserveAspectRatio="xMidYMid meet">

<g transform="translate(0.000000,512.000000) scale(0.100000,-0.100000)"
fill="#000000" stroke="none">
<path d="M2500 2559 l0 -2560 28 15 c15 8 517 298 1117 645 l1090 629 3 205
c2 197 2 206 -17 212 -18 5 -409 -216 -1741 -988 l-95 -55 -5 2120 -5 2119
-187 109 -188 108 0 -2559z"/>
<path d="M1946 4825 c-87 -51 -166 -99 -176 -108 -10 -8 -24 -17 -32 -19 -33
-8 -347 -194 -348 -206 0 -7 -4 -10 -10 -7 -11 7 -338 -178 -356 -201 -6 -7
-13 -12 -15 -9 -3 2 -166 -89 -364 -203 l-360 -207 -3 -1306 -2 -1305 159 -92
c106 -61 170 -92 190 -92 l31 0 2 1277 3 1278 175 101 175 102 3 -1501 2
-1502 167 -95 c92 -52 176 -95 188 -95 l20 0 5 1709 5 1708 170 99 c94 54 173
99 177 99 5 0 9 -867 10 -1927 l3 -1926 171 -99 c109 -63 177 -96 188 -92 15
6 16 190 16 2350 0 2222 -1 2344 -17 2352 -14 6 -57 -14 -177 -83z"/>
<path d="M3680 4105 c-157 -91 -322 -187 -367 -213 l-83 -47 0 -861 0 -860
313 -181 c171 -99 338 -195 369 -212 l57 -32 163 93 c90 52 263 152 386 223
l222 128 0 203 c0 193 -1 203 -20 209 -24 7 7 24 -408 -217 l-344 -198 -171
99 -172 99 -3 207 -2 207 32 -20 c18 -11 97 -56 174 -101 l141 -81 386 222
387 223 0 415 -1 415 -72 42 c-39 23 -213 123 -385 222 -172 100 -314 181
-315 181 -1 0 -130 -75 -287 -165z m528 -415 l132 -75 -1 -205 0 -205 -185
-106 -186 -107 -174 100 -174 101 0 217 0 218 173 99 172 100 56 -31 c30 -17
115 -65 187 -106z"/>
</g>
</svg>
